<?xml version="1.0" standalone="no"?><!DOCTYPE svg PUBLIC "-//W3C//DTD SVG 1.1//EN" "http://www.w3.org/Graphics/SVG/1.1/DTD/svg11.dtd"><svg t="1680430769565" class="icon" viewBox="0 0 1024 1024" version="1.1" xmlns="http://www.w3.org/2000/svg" p-id="883" xmlns:xlink="http://www.w3.org/1999/xlink" width="200" height="200"><path d="M893.08 532.59H548.49c-31.95 0-57.94-25.99-57.94-57.94v-344.6c0-16.35 6.95-32.05 19.06-43.07 11.96-10.91 27.94-16.31 44.1-14.81 210.51 19.68 377.58 186.76 397.25 397.27 1.5 16.05-3.91 32.12-14.81 44.1-11.03 12.11-26.73 19.05-43.07 19.05z m-344.76-417.4c-4.69 0-7.97 2.31-9.57 3.78-1.84 1.67-4.92 5.34-4.92 11.07v344.59c0 8.08 6.57 14.67 14.67 14.67h344.59c5.73 0 9.38-3.07 11.05-4.91 1.61-1.76 4.23-5.53 3.72-10.93C890.13 283.64 739.48 133 549.68 115.25c-0.47-0.03-0.94-0.06-1.36-0.06z" fill="#333333" p-id="884"></path><path d="M512.18 951.67c-243.01 0-440.72-197.71-440.72-440.72 0-206.77 146.57-388.05 348.53-431.05l9 42.33C246.9 161 114.74 324.47 114.74 510.95c0 219.16 178.29 397.44 397.44 397.44 190.82 0 355.05-135.86 390.49-323.03l42.52 8.05C905.89 801 723.77 951.67 512.18 951.67z" fill="#333333" p-id="885"></path><path d="M422.86 101.06m-21.64 0a21.64 21.64 0 1 0 43.28 0 21.64 21.64 0 1 0-43.28 0Z" fill="#333333" p-id="886"></path><path d="M923.93 589.39m-21.64 0a21.64 21.64 0 1 0 43.28 0 21.64 21.64 0 1 0-43.28 0Z" fill="#333333" p-id="887"></path></svg>